<?xml version="1.0" encoding="UTF-8" standalone="no"?><!DOCTYPE svg PUBLIC "-//W3C//DTD SVG 1.1//EN" "http://www.w3.org/Graphics/SVG/1.1/DTD/svg11.dtd"><svg width="100%" height="100%" viewBox="0 0 67 67" version="1.1" xmlns="http://www.w3.org/2000/svg" xmlns:xlink="http://www.w3.org/1999/xlink" xml:space="preserve" xmlns:serif="http://www.serif.com/" style="fill-rule:evenodd;clip-rule:evenodd;stroke-linejoin:round;stroke-miterlimit:2;"><path d="M12.5,12.5l0,12.5l4.167,0c0,-2.286 1.881,-4.167 4.167,-4.167l8.333,0l0,25c0,2.286 -1.881,4.167 -4.167,4.167l0,4.167l16.667,0l0,-4.167c-2.286,0 -4.167,-1.881 -4.167,-4.167l0,-25l8.333,0c2.286,0 4.167,1.881 4.167,4.167l4.167,0l0,-12.5l-41.667,0Z" style="fill:#fff;fill-opacity:0;fill-rule:nonzero;"/><path d="M45.833,32.218l0,10.563c2.491,1.441 4.167,4.134 4.167,7.218l0,4.167c0,4.602 -3.731,8.333 -8.333,8.333l-16.667,0c-4.602,-0 -8.333,-3.731 -8.333,-8.333l0,-4.167c-0,-3.085 1.676,-5.778 4.167,-7.218l-0,-10.563c-1.226,0.709 -2.649,1.115 -4.167,1.115l-4.167,0c-4.602,-0 -8.333,-3.731 -8.333,-8.333l0,-12.5c-0,-4.602 3.731,-8.333 8.333,-8.333l41.667,0c4.602,-0 8.333,3.731 8.333,8.333l0,12.5c-0,4.602 -3.731,8.333 -8.333,8.333l-4.167,0c-1.518,-0 -2.941,-0.406 -4.167,-1.115Zm-33.333,-19.718l0,12.5l4.167,0c0,-2.286 1.881,-4.167 4.167,-4.167l8.333,0l0,25c0,2.286 -1.881,4.167 -4.167,4.167l0,4.167l16.667,0l0,-4.167c-2.286,0 -4.167,-1.881 -4.167,-4.167l0,-25l8.333,0c2.286,0 4.167,1.881 4.167,4.167l4.167,0l0,-12.5l-41.667,0Z" style="fill:#ff5f5f;"/></svg>